#!OML:ASF H:\ManfredETheater\Project 1\Capture day 1\Session 1\subject.ASF
:FULLY-SPECIFIED
:DEGREES
167
root 3.75536 16.258 -23.7076 -179.981 -46.026 -182.415
lowerback 27.6366 -2.63117 3.87678
upperback 4.70447 -2.69495 4.33417
thorax -9.9598 -1.68738 3.67368
lowerneck -7.86132 -11.1957 -13.752
upperneck 4.99609 -13.9397 4.9043
head 4.03391 -7.00247 2.67751
rclavicle -3.73715e-014 1.59028e-014
rhumerus -46.5557 -24.8923 -58.5274
rradius 29.0056
rwrist 3.75413
rhand -25.406 -12.5041
rfingers 7.12502
rthumb 1.11943 -42.4809
lclavicle -3.73715e-014 1.59028e-014
lhumerus -29.2561 21.2508 26.4924
lradius 101.305
lwrist 2.9648
lhand -27.234 5.04268
lfingers 7.12502
lthumb -0.646051 35.0214
rfemur -36.9872 -9.74381 8.39196
rtibia 57.4679
rfoot -8.93994 -8.38228
rtoes -30.806
lfemur -38.1036 -5.11838 -7.80901
ltibia 71.2018
lfoot -15.2161 -12.729
ltoes -5.40344
168
root 3.73896 16.3501 -23.775 -179.453 -45.7097 -182.841
lowerback 27.328 -2.77792 3.78626
upperback 4.58539 -2.90953 4.25471
thorax -9.93357 -1.77598 3.69572
lowerneck -8.09007 -11.0967 -13.5364
upperneck 4.97703 -13.7865 4.76492
head 4.02612 -6.92541 2.60982
rclavicle -5.48646e-014 0
rhumerus -47.2685 -25.0931 -57.6391
rradius 28.8641
rwrist 4.04173
rhand -25.2872 -12.6702
rfingers 7.12502
rthumb 1.23418 -42.6464
lclavicle -5.48646e-014 0
lhumerus -30.0576 20.2773 28.7264
lradius 101.194
lwrist 2.19828
lhand -26.8478 4.99828
lfingers 7.12502
lthumb -0.2731 34.9778
rfemur -36.4811 -9.3078 8.27043
rtibia 56.4433
rfoot -8.77344 -8.49443
rtoes -30.3641
lfemur -37.8944 -5.24991 -8.26568
ltibia 70.8072
lfoot -14.5131 -11.8253
ltoes -4.21509
169
root 3.72215 16.4401 -23.8411 -179.003 -45.3768 -183.187
lowerback 27.018 -2.91075 3.70992
upperback 4.47763 -3.1036 4.19121
thorax -9.89316 -1.85672 3.71873
lowerneck -8.31857 -11.0021 -13.3206
upperneck 4.96088 -13.6409 4.63432
head 4.02099 -6.85182 2.54383
rclavicle 1.66979e-014 -3.65764e-014
rhumerus -47.9166 -25.1706 -56.8417
rradius 28.8373
rwrist 4.12193
rhand -25.1874 -12.8582
rfingers 7.12502
rthumb 1.33061 -42.8338
lclavicle 1.66979e-014 -3.65764e-014
lhumerus -30.8095 19.4088 30.981
lradius 100.974
lwrist 1.63599
lhand -26.4022 5.00534
lfingers 7.12502
lthumb 0.157284 34.985
rfemur -35.9554 -8.81331 8.19124
rtibia 55.405
rfoot -8.58136 -8.63775
rtoes -29.97
lfemur -37.6868 -5.35488 -8.70213
ltibia 70.432
lfoot -13.9944 -10.9435
ltoes -2.88359
170
root 3.70444 16.528 -23.9062 -178.631 -45.0251 -183.449
lowerback 26.7186 -3.03062 3.67001
upperback 4.36707 -3.26942 4.13655
thorax -9.86258 -1.92574 3.72113
lowerneck -8.52798 -10.9153 -13.1167
upperneck 4.95952 -13.5093 4.52111
head 4.02111 -6.785 2.4838
rclavicle -1.35174e-014 -4.29375e-014
rhumerus -48.532 -25.1241 -56.1344
rradius 28.9162
rwrist 4.01788
rhand -25.1277 -13.0341
rfingers 7.12502
rthumb 1.38821 -43.0093
lclavicle -1.35174e-014 -4.29375e-014
lhumerus -31.514 18.6132 33.2365
lradius 100.645
lwrist 1.29203
lhand -25.8839 4.99032
lfingers 7.12502
lthumb 0.657888 34.9691
rfemur -35.4123 -8.26636 8.15917
rtibia 54.3559
rfoot -8.37067 -8.80397
rtoes -29.6107
lfemur -37.4731 -5.43042 -9.11556
ltibia 70.0562
lfoot -13.7042 -10.1103
ltoes -1.58544
171
root 3.68598 16.6132 -23.9701 -178.315 -44.6515 -183.656
lowerback 26.4275 -3.1362 3.64013
upperback 4.25655 -3.41353 4.08608
thorax -9.83654 -1.98523 3.71492
lowerneck -8.73693 -10.8303 -12.9078
upperneck 4.98074 -13.3816 4.40723
head 4.02853 -6.72036 2.42185
rclavicle -5.88403e-014 3.18055e-015
rhumerus -49.0905 -24.9584 -55.5322
rradius 29.0749
rwrist 3.76353
rhand -25.1044 -13.1997
rfingers 7.12502
rthumb 1.41075 -43.1748
lclavicle -5.88403e-014 3.18055e-015
lhumerus -32.1761 17.9122 35.4665
lradius 100.195
lwrist 1.11912
lhand -25.2714 4.90089
lfingers 7.12502
lthumb 1.24941 34.877
rfemur -34.8595 -7.66906 8.15419
rtibia 53.3014
rfoot -8.14186 -8.9881
rtoes -29.2775
lfemur -37.249 -5.47526 -9.5266
ltibia 69.6556
lfoot -13.6581 -9.35357
ltoes -0.484306
172
root 3.66649 16.6959 -24.0329 -178.051 -44.26 -183.809
lowerback 26.1486 -3.23155 3.62728
upperback 4.14007 -3.53831 4.0352
thorax -9.82451 -2.03608 3.69265
lowerneck -8.93791 -10.7443 -12.6978
upperneck 5.03051 -13.2553 4.30245
head 4.04467 -6.65638 2.36187
rclavicle -4.37326e-014 4.29375e-014
rhumerus -49.6064 -24.6887 -55.0295
rradius 29.3164
rwrist 3.39471
rhand -25.1043 -13.3621
rfingers 7.12502
rthumb 1.41083 -43.3372
lclavicle -4.37326e-014 4.29375e-014
lhumerus -32.8019 17.2816 37.6503
lradius 99.6231
lwrist 1.0828
lhand -24.6108 4.7299
lfingers 7.12502
lthumb 1.88745 34.7013
rfemur -34.2976 -7.03574 8.17579
rtibia 52.2431
rfoot -7.90389 -9.17973
rtoes -28.9489
lfemur -37.0128 -5.49342 -9.93664
ltibia 69.21
lfoot -13.85 -8.69429
ltoes 0.260167
173
root 3.64569 16.7761 -24.0943 -177.811 -43.8581 -183.941
lowerback 25.8786 -3.32235 3.61994
upperback 4.01377 -3.65414 3.9751
thorax -9.82908 -2.08239 3.65468
lowerneck -9.12576 -10.6548 -12.4857
upperneck 5.10318 -13.1276 4.20764
head 4.06671 -6.59142 2.30475
rclavicle 9.78021e-014 -3.18055e-014
rhumerus -50.0742 -24.3262 -54.6254
rradius 29.6153
rwrist 2.94474
rhand -25.1252 -13.5085
rfingers 7.12502
rthumb 1.39063 -43.4837
lclavicle 9.78021e-014 -3.18055e-014
lhumerus -33.399 16.7308 39.7716
lradius 98.9225
lwrist 1.1023
lhand -23.9424 4.44121
lfingers 7.12502
lthumb 2.53295 34.4059
rfemur -33.7314 -6.3887 8.19913
rtibia 51.185
rfoot -7.66333 -9.3679
rtoes -28.6085
lfemur -36.7683 -5.49888 -10.3692
ltibia 68.6987
lfoot -14.2328 -8.15567
ltoes 0.590335
174
root 3.62396 16.8538 -24.1547 -177.602 -43.4366 -184.038
lowerback 25.6149 -3.4064 3.61708
upperback 3.87963 -3.75889 3.90971
thorax -9.84645 -2.12331 3.6051
lowerneck -9.30791 -10.5587 -12.2759
upperneck 5.20035 -12.9934 4.13004
head 4.0967 -6.52264 2.25328
rclavicle 1.28017e-013 -2.06736e-014
rhumerus -50.4876 -23.8963 -54.3101
rradius 29.9533
rwrist 2.46919
rhand -25.1591 -13.6348
rfingers 7.12502
rthumb 1.35787 -43.6102
lclavicle 1.28017e-013 -2.06736e-014
lhumerus -33.9841 16.2408 41.8118
lradius 98.1183
lwrist 1.11236
lhand -23.318 4.0911
lfingers 7.12502
lthumb 3.13596 34.0478
rfemur -33.1702 -5.71633 8.23855
rtibia 50.129
rfoot -7.41876 -9.55701
rtoes -28.2495
lfemur -36.5183 -5.47896 -10.8067
ltibia 68.1083
lfoot -14.7523 -7.76739
ltoes 0.451414
175
root 3.60031 16.9291 -24.2128 -177.386 -43.0132 -184.144
lowerback 25.3487 -3.49376 3.61735
upperback 3.73593 -3.86665 3.82678
thorax -9.87443 -2.1652 3.5351
lowerneck -9.47793 -10.4561 -12.0724
upperneck 5.3108 -12.8532 4.07685
head 4.13094 -6.44992 2.21082
rclavicle 1.11319e-014 1.11319e-014
rhumerus -50.8448 -23.4142 -54.0784
rradius 30.3225
rwrist 1.99228
rhand -25.1999 -13.7488
rfingers 7.12502
rthumb 1.31849 -43.7245
lclavicle 1.11319e-014 1.11319e-014
lhumerus -34.5481 15.7979 43.7745
lradius 97.2134
lwrist 1.05984
lhand -22.8192 3.75028
lfingers 7.12502
lthumb 3.61773 33.6993
rfemur -32.617 -5.07143 8.25684
rtibia 49.0791
rfoot -7.17863 -9.71684
rtoes -27.8784
lfemur -36.272 -5.46185 -11.2868
ltibia 67.4279
lfoot -15.3542 -7.55788
ltoes -0.130979
176
root 3.57558 17.0016 -24.2695 -177.182 -42.5745 -184.23
lowerback 25.0716 -3.57676 3.61876
upperback 3.58894 -3.96911 3.73654
thorax -9.90095 -2.20462 3.45353
lowerneck -9.63542 -10.3476 -11.8752
upperneck 5.42255 -12.7082 4.04942
head 4.16575 -6.37366 2.17801
rclavicle -9.54166e-015 -1.1609e-013
rhumerus -51.1401 -22.8945 -53.9272
rradius 30.7174
rwrist 1.53594
rhand -25.2447 -13.8454
rfingers 7.12502
rthumb 1.27519 -43.8213
lclavicle -9.54166e-015 -1.1609e-013
lhumerus -35.0894 15.3987 45.66
lradius 96.2145
lwrist 0.905616
lhand -22.4915 3.45231
lfingers 7.12502
lthumb 3.9342 33.3957
rfemur -32.0823 -4.43124 8.28139
rtibia 48.0398
rfoot -6.94293 -9.85863
rtoes -27.4844
lfemur -36.0322 -5.42706 -11.7777
ltibia 66.6536
lfoot -15.9851 -7.56729
ltoes -1.07894
177
root 3.54963 17.0714 -24.3251 -176.982 -42.1188 -184.305
lowerback 24.7752 -3.65283 3.61695
upperback 3.44242 -4.06505 3.63828
thorax -9.91713 -2.24109 3.36075
lowerneck -9.77753 -10.2348 -11.6935
upperneck 5.52984 -12.56 4.05421
head 4.19995 -6.29442 2.15827
rclavicle -3.33958e-014 6.36111e-015
rhumerus -51.3771 -22.3536 -53.8468
rradius 31.1366
rwrist 1.10883
rhand -25.2872 -13.921
rfingers 7.12502
rthumb 1.23416 -43.8972
lclavicle -3.33958e-014 6.36111e-015
lhumerus -35.6051 15.0345 47.4723
lradius 95.1363
lwrist 0.638684
lhand -22.337 3.22626
lfingers 7.12502
lthumb 4.08331 33.1669
rfemur -31.5694 -3.80361 8.30505
rtibia 47.0172
rfoot -6.71656 -9.97654
rtoes -27.0719
lfemur -35.7982 -5.3768 -12.2852
ltibia 65.7829
lfoot -16.613 -7.80084
ltoes -2.30469
178
root 3.52258 17.1382 -24.3798 -176.78 -41.6436 -184.371
lowerback 24.4513 -3.71766 3.6071
upperback 3.29808 -4.15054 3.53478
thorax -9.91608 -2.27272 3.26052
lowerneck -9.90058 -10.1213 -11.5269
upperneck 5.62333 -12.4135 4.08451
head 4.22981 -6.21497 2.1495
rclavicle 9.62118e-014 -1.59028e-014
rhumerus -51.561 -21.8015 -53.8265
rradius 31.5819
rwrist 0.71446
rhand -25.3231 -13.9706
rfingers 7.12502
rthumb 1.19949 -43.947
lclavicle 9.62118e-014 -1.59028e-014
lhumerus -36.0939 14.7029 49.2142
lradius 93.9861
lwrist 0.266491
lhand -22.3258 3.03443
lfingers 7.12502
lthumb 4.0942 32.9748
rfemur -31.0872 -3.19137 8.32729
rtibia 46.0176
rfoot -6.50227 -10.0674
rtoes -26.6425
lfemur -35.5731 -5.30868 -12.8065
ltibia 64.8167
lfoot -17.2402 -8.28376
ltoes -3.69561
179
root 3.49463 17.2016 -24.4337 -176.58 -41.1446 -184.423
lowerback 24.0919 -3.76837 3.58349
upperback 3.1626 -4.22432 3.43117
thorax -9.88504 -2.29911 3.16038
lowerneck -10.0124 -10.0081 -11.37
upperneck 5.69721 -12.2691 4.13026
head 4.25373 -6.13589 2.14762
rclavicle 3.22031e-014 -5.08889e-014
rhumerus -51.683 -21.2492 -53.8631
rradius 32.0533
rwrist 0.350856
rhand -25.3485 -13.9961
rfingers 7.12502
rthumb 1.17502 -43.9726
lclavicle 3.22031e-014 -5.08889e-014
lhumerus -36.5662 14.392 50.8798
lradius 92.7936
lwrist -0.174901
lhand -22.4116 2.9226
lfingers 7.12502
lthumb 4.01134 32.8646
rfemur -30.6421 -2.59309 8.35243
rtibia 45.0477
rfoot -6.30074 -10.1303
rtoes -26.2116
lfemur -35.358 -5.21999 -13.3351
ltibia 63.7566
lfoot -17.867 -9.00548
ltoes -5.20339
